<svg width="72" height="15" viewBox="0 0 72 15" fill="none" xmlns="http://www.w3.org/2000/svg">
<g clip-path="url(#clip0_75_314)">
<path fill-rule="evenodd" clip-rule="evenodd" d="M47.4525 8.03213C47.4952 8.31213 47.5165 8.52751 47.5805 8.7429C48.0497 10.746 49.6066 12.0814 51.6326 12.2537C53.4241 12.4044 54.8317 11.7152 55.8767 10.2291C56.3886 9.51828 57.2203 9.38905 57.8814 9.97059C58.2653 10.2937 58.308 10.7244 58.0094 11.1337C57.8388 11.3491 57.6895 11.5644 57.5189 11.8014C56.8364 12.7491 55.9407 13.3952 54.8317 13.7829C53.0402 14.4075 51.2487 14.4937 49.4786 13.826C47.09 12.9429 45.6824 11.1767 45.2772 8.65674C45.0426 7.10598 45.1919 5.55521 45.8956 4.15521C46.9193 2.15213 48.5189 0.924438 50.7369 0.558284C52.2085 0.321361 53.6587 0.47213 55.0236 1.13982C56.9644 2.06598 58.1374 3.63828 58.5852 5.72751C58.7132 6.30905 58.7559 6.89059 58.7985 7.47213C58.8412 7.83828 58.6705 7.98905 58.308 8.01059C58.1374 8.01059 57.9881 8.01059 57.8175 8.01059C54.5118 8.01059 51.2061 8.01059 47.9217 8.01059C47.7724 8.03213 47.6658 8.03213 47.4525 8.03213ZM56.4739 5.83521C56.1966 3.96136 53.9573 2.32444 51.8885 2.45367C49.7345 2.5829 47.6018 4.24136 47.5165 5.83521C50.481 5.83521 53.4881 5.83521 56.4739 5.83521Z" fill="white" fill-opacity="0.5"/>
<path fill-rule="evenodd" clip-rule="evenodd" d="M30.519 7.96737C30.5403 8.16122 30.5617 8.29045 30.583 8.44122C30.9882 10.6597 32.7797 12.1889 34.9977 12.232C36.6825 12.2535 37.9835 11.5643 38.9645 10.1858C39.4764 9.45352 40.3934 9.36737 41.0332 10.0135C41.3318 10.3366 41.3958 10.7243 41.0972 11.112C40.9692 11.3058 40.8413 11.4781 40.692 11.6289C39.9669 12.7058 38.9645 13.3951 37.7489 13.8043C35.9574 14.4074 34.1659 14.4504 32.4384 13.7612C29.9645 12.792 28.5783 10.8751 28.2797 8.20429C28.1304 6.91199 28.2584 5.66275 28.7915 4.47814C29.8366 2.23814 31.5214 0.859677 33.974 0.5366C35.2749 0.364292 36.5759 0.471984 37.7702 0.967369C39.9456 1.87198 41.2038 3.57352 41.6944 5.87814C41.7797 6.39506 41.8437 6.95506 41.865 7.47199C41.8863 7.90276 41.801 7.98891 41.3531 7.98891C40.5854 7.98891 39.7749 7.98891 38.9858 7.98891C36.3413 7.98891 33.6967 7.98891 31.0948 7.98891C30.9029 7.96737 30.7323 7.96737 30.519 7.96737ZM39.583 5.77045C39.3057 3.91814 37.1304 2.34583 34.9977 2.38891C32.929 2.43199 30.7749 4.11199 30.6043 5.77045C33.5901 5.77045 36.5546 5.77045 39.583 5.77045Z" fill="white" fill-opacity="0.5"/>
<path fill-rule="evenodd" clip-rule="evenodd" d="M67.628 8.95857C67.7987 9.10934 67.884 9.19549 67.9906 9.28165C69.1423 10.2724 70.2939 11.2632 71.4243 12.254C71.4882 12.3186 71.5949 12.4047 71.6589 12.4693C72.0854 12.9001 72.128 13.5247 71.7228 13.9555C71.3389 14.3863 70.7418 14.4509 70.2939 14.0847C69.4835 13.417 68.7157 12.7278 67.9266 12.0601C66.7963 11.0909 65.6873 10.1216 64.5569 9.15242C64.4716 9.06626 64.3437 8.98011 64.1731 8.85088C64.1731 9.0878 64.1517 9.23857 64.1517 9.38934C64.1517 12.1247 64.1517 10.0786 64.1517 12.814C64.1517 12.9432 64.1517 13.0724 64.1517 13.2016C64.1091 13.8047 63.6612 14.2355 63.0641 14.1924C62.4882 14.1709 62.1043 13.7401 62.083 13.137C62.083 13.0078 62.083 12.8786 62.083 12.7493C62.083 7.34319 62.083 6.71857 62.083 1.31242C62.083 1.14011 62.083 0.989339 62.083 0.817032C62.083 0.429339 62.1257 0.364724 62.4882 0.364724C62.9787 0.343185 63.4693 0.343185 63.9598 0.343185C65.1328 0.343185 66.3484 0.386262 67.5214 0.321647C69.5048 0.235493 71.7228 1.85088 71.9361 4.19857C72.128 6.30934 70.6991 8.31242 68.5664 8.74319C68.2892 8.8078 67.9906 8.89395 67.628 8.95857ZM64.0238 7.30011C64.1517 7.32165 64.237 7.32165 64.301 7.32165C65.2821 7.32165 66.2844 7.32165 67.2655 7.32165C67.5427 7.32165 67.8413 7.30011 68.1186 7.19242C69.0356 6.91242 69.7607 6.35242 69.9953 5.36165C70.4006 3.66011 69.1423 2.10934 67.4148 2.10934C66.3911 2.10934 65.3887 2.10934 64.3437 2.10934C64.2157 2.10934 64.1091 2.13088 63.9811 2.13088C64.0238 3.85395 64.0238 5.55549 64.0238 7.30011Z" fill="white" fill-opacity="0.5"/>
<path fill-rule="evenodd" clip-rule="evenodd" d="M22.8413 7.98909C20.8792 7.98909 18.9811 7.98909 17.0403 7.98909C17.0403 8.1614 17.019 8.31217 17.019 8.46294C17.019 9.97063 17.019 11.4568 17.019 12.9645C17.019 13.1583 17.019 13.3522 16.9763 13.5029C16.8271 13.9552 16.3579 14.2352 15.91 14.2137C15.4195 14.1706 15.0143 13.7829 14.9503 13.2876C14.929 13.1583 14.9503 13.0506 14.9503 12.9214C14.9503 7.55832 14.929 6.91217 14.929 1.57063C14.929 1.35525 14.9503 1.13986 15.0143 0.946018C15.1849 0.493711 15.6541 0.235249 16.1446 0.299865C16.5925 0.36448 16.9763 0.752172 17.019 1.22602C17.0403 1.37679 17.019 1.50602 17.019 1.65679C17.019 4.41371 17.0403 2.45371 17.0403 5.21063C17.0403 5.38294 17.0617 5.53371 17.0617 5.68448C17.4242 5.77063 22.4574 5.77063 22.8413 5.68448C22.8413 5.55525 22.8626 5.42602 22.8626 5.27525C22.8626 4.06909 22.8626 2.8414 22.8626 1.63525C22.8626 1.50602 22.8626 1.39833 22.8626 1.2691C22.9053 0.730634 23.3105 0.321403 23.8436 0.299865C24.3768 0.278326 24.8673 0.687557 24.9313 1.22602C24.9526 1.35525 24.9313 1.46294 24.9313 1.59217C24.9313 5.3614 24.9313 9.10909 24.9313 12.8783C24.9313 13.0076 24.9313 13.1152 24.9313 13.2445C24.8673 13.7829 24.3981 14.2137 23.865 14.1922C23.3318 14.1706 22.9053 13.7399 22.8413 13.2014C22.8413 13.0722 22.8413 12.9645 22.8413 12.8352C22.8413 11.3922 22.8413 9.90602 22.8413 8.46294C22.8413 8.33371 22.8413 8.18294 22.8413 7.98909Z" fill="white" fill-opacity="0.5"/>
<path fill-rule="evenodd" clip-rule="evenodd" d="M5.8649 14.2998C4.47865 14.2783 3.1777 13.9767 1.98339 13.2444C1.47154 12.9429 1.00234 12.5552 0.618457 12.1029C0.426514 11.866 0.191916 11.629 0.106608 11.3275C-0.0213538 10.9398 -0.0426808 10.509 0.319878 10.1644C0.725092 9.77673 1.27959 9.62596 1.8341 9.99211C2.36727 10.3798 2.6232 10.8752 3.07106 11.3275C3.71087 11.9736 4.54263 12.3183 5.43836 12.426C6.27011 12.5121 7.08054 12.4906 7.89097 12.2106C8.21087 12.0813 8.55211 11.9306 8.82936 11.7152C9.3412 11.1336 9.49049 10.3152 8.87201 9.75519C8.57343 9.49673 8.18955 9.30288 7.80566 9.13057C6.86727 8.72134 5.88623 8.44134 4.90519 8.18288C4.09476 7.98903 3.32699 7.73057 2.51656 7.49365C2.21798 7.4075 1.9194 7.23519 1.64215 7.08442C0.895708 6.67519 0.469168 6.02904 0.341205 5.21057C0.106608 3.50904 0.725092 1.9798 2.19666 1.22596C4.49997 0.0844201 6.8886 0.192112 9.19192 1.50596C9.61846 1.74288 10.0237 2.10904 10.3862 2.43211C10.6635 2.66904 10.8767 3.01365 10.9834 3.3798C11.09 3.83211 10.8767 4.30596 10.3222 4.43519C9.85305 4.54288 9.42651 4.39211 9.08528 4.02596C9.0213 3.96134 8.95732 3.87519 8.91466 3.81057C8.38149 2.99211 7.59239 2.5398 6.654 2.3675C5.71561 2.19519 4.77722 2.21673 3.88149 2.58288C3.56158 2.71211 3.22035 2.88442 2.96443 3.12134C2.58054 3.63827 2.43125 4.3275 2.9431 4.97365C3.34831 5.36134 3.81751 5.57673 4.32936 5.68442C5.45969 5.96442 6.61135 6.26596 7.74168 6.54596C8.4668 6.7398 9.17059 6.97673 9.83173 7.36442C10.6848 7.81673 11.3033 8.48442 11.5166 9.45365C11.7725 10.6383 11.5166 11.7583 10.5995 12.6198C9.55447 13.5675 8.36016 14.0844 6.97391 14.2352C6.59002 14.2783 6.20613 14.2783 5.8649 14.2998Z" fill="white" fill-opacity="0.5"/>
</g>
<defs>
<clipPath id="clip0_75_314">
<rect width="72" height="14" fill="white" transform="translate(0 0.321289)"/>
</clipPath>
</defs>
</svg>
