<svg width="33" height="32" viewBox="0 0 33 32" fill="none" xmlns="http://www.w3.org/2000/svg">
<path d="M28.045 24H25.134V22.937C25.134 21.317 23.816 19.999 22.196 19.999H19.634V17.772L20.895 18.452C21.044 18.532 21.208 18.572 21.37 18.572C21.575 18.572 21.779 18.509 21.952 18.385C22.263 18.162 22.42 17.783 22.357 17.406L21.561 12.641L24.93 9.271C25.197 9.003 25.29 8.609 25.172 8.25C25.053 7.892 24.743 7.63 24.37 7.574L19.736 6.883L17.659 2.564C17.491 2.221 17.141 2 16.757 2C16.373 2 16.022 2.221 15.856 2.566L13.779 6.885L9.14403 7.577C8.77103 7.633 8.46103 7.895 8.34203 8.253C8.22403 8.611 8.31803 9.006 8.58403 9.273L11.953 12.643L11.157 17.408C11.094 17.785 11.251 18.164 11.562 18.387C11.873 18.61 12.284 18.635 12.618 18.453L13.634 17.905V20H11.071C9.45203 20 8.13403 21.317 8.13403 22.938V24H5.22303C3.79603 24 2.63403 25.161 2.63403 26.589V27.411C2.63403 28.839 3.79603 30 5.22303 30H28.044C29.472 30 30.634 28.839 30.634 27.411V26.589C30.634 25.161 29.472 24 28.045 24ZM13.732 11.594L11.402 9.263L14.598 8.786C14.926 8.737 15.208 8.529 15.352 8.23L16.757 5.307L18.162 8.23C18.306 8.529 18.588 8.737 18.916 8.786L22.111 9.263L19.781 11.594C19.553 11.823 19.449 12.148 19.502 12.466L20.046 15.723L17.231 14.204C16.935 14.045 16.578 14.043 16.281 14.204L13.465 15.723L14.009 12.466C14.064 12.147 13.96 11.822 13.732 11.594ZM15.602 16.843L16.756 16.221L17.689 16.724C17.663 16.813 17.634 16.902 17.634 17V20H15.634V17C15.634 16.944 15.611 16.896 15.602 16.843ZM10.134 22.938C10.134 22.421 10.554 22 11.072 22H14.634H18.634H22.197C22.714 22 23.135 22.421 23.135 22.938V24H10.135V22.938H10.134ZM28.634 27.411C28.634 27.736 28.37 28 28.045 28H5.22303C4.89803 28 4.63403 27.736 4.63403 27.411V26.589C4.63403 26.264 4.89803 26 5.22303 26H9.13403H24.134H28.045C28.37 26 28.634 26.264 28.634 26.589V27.411Z" fill="black"/>
</svg>
