<svg width="26" height="25" viewBox="0 0 26 25" fill="none" xmlns="http://www.w3.org/2000/svg">
<path d="M19.4805 7.48156H18.383C18.9138 6.00994 19.43 3.84776 18.7353 2.15207C18.3257 1.15216 17.5469 0.441038 16.483 0.096138C16.2866 0.0321707 16.0824 0 15.8766 0C14.4922 0 13.2394 1.35154 11.4087 4.82112C10.5861 6.38139 9.4021 7.69516 8.56828 8.40366C8.2144 8.70442 7.9316 9.01116 7.70229 9.31304C7.07009 8.37336 5.99724 7.75426 4.78223 7.75426C2.84264 7.75426 1.2644 9.33249 1.2644 11.2721V21.4822C1.2644 23.4221 2.84264 25 4.78223 25C6.05634 25 7.1711 24.3166 7.78832 23.2994C8.61578 24.3199 9.87792 24.9742 11.2912 24.9742H19.9036C23.4599 24.9742 23.9908 22.6788 23.9908 21.3108V11.9926C23.9911 9.50532 21.9677 7.48156 19.4805 7.48156ZM6.05559 21.4822C6.05559 22.1843 5.48438 22.7555 4.78261 22.7555C4.08046 22.7555 3.50925 22.1843 3.50925 21.4822V11.2721C3.50925 10.5699 4.08046 9.99873 4.78261 9.99873C5.48438 9.99873 6.05559 10.5699 6.05559 11.2721V21.4822ZM21.7467 21.3108C21.7467 22.1417 21.6142 22.7297 19.904 22.7297H11.2916C10.0421 22.7297 9.0254 21.7134 9.0254 20.4639V11.9926L9.02839 11.957L9.02054 11.8912C9.01829 11.8553 8.98088 10.9986 10.0216 10.1143C11.0151 9.26965 12.4228 7.71087 13.3939 5.86816C14.9396 2.93913 15.6773 2.36941 15.8774 2.26167C16.2661 2.40682 16.5088 2.63837 16.6581 3.00272C17.1418 4.18331 16.5343 6.45322 15.6844 8.08532L14.8303 9.72565H19.4801C20.7299 9.72565 21.7467 10.7424 21.7467 11.9922V21.3108Z" fill="black"/>
</svg>
