<svg width="29" height="29" viewBox="0 0 29 29" fill="none" xmlns="http://www.w3.org/2000/svg">
<path d="M25.4628 24.6273L23.9618 15.9727H24.4688C24.8766 15.9727 25.2051 15.6441 25.2051 15.2363V9.79883C25.2051 9.39102 24.8766 9.0625 24.4688 9.0625H17.502V3.9082C17.502 3.50039 17.1734 3.17188 16.7656 3.17188H12.2344C11.8266 3.17188 11.498 3.50039 11.498 3.9082V9.0625H4.53125C4.12344 9.0625 3.79492 9.39102 3.79492 9.79883V15.2363C3.79492 15.6441 4.12344 15.9727 4.53125 15.9727H5.03818L3.53721 24.6273C3.52871 24.6698 3.52588 24.7123 3.52588 24.752C3.52588 25.1598 3.85439 25.4883 4.26221 25.4883H24.7378C24.7803 25.4883 24.8228 25.4854 24.8624 25.477C25.2646 25.409 25.5336 25.0267 25.4628 24.6273ZM5.77734 11.0449H13.4805V5.1543H15.5195V11.0449H23.2227V13.9902H5.77734V11.0449ZM19.0312 23.5059V19.0879C19.0312 18.9633 18.9293 18.8613 18.8047 18.8613H17.4453C17.3207 18.8613 17.2188 18.9633 17.2188 19.0879V23.5059H11.7812V19.0879C11.7812 18.9633 11.6793 18.8613 11.5547 18.8613H10.1953C10.0707 18.8613 9.96875 18.9633 9.96875 19.0879V23.5059H5.74336L7.02061 16.1426H21.9766L23.2538 23.5059H19.0312Z" fill="black"/>
</svg>
