<svg width="29" height="28" viewBox="0 0 29 28" fill="none" xmlns="http://www.w3.org/2000/svg">
<g clip-path="url(#clip0_40_264)">
<path d="M25.9572 21.4607H3.36658C2.71037 21.4607 2.1797 20.9244 2.1797 20.2739C2.1797 12.8844 7.13834 6.8131 13.4721 6.12837V4.87302H12.4622C11.806 4.87302 11.2753 4.33664 11.2753 3.68614C11.2753 3.03564 11.8117 2.49927 12.4622 2.49927H16.8616C17.5178 2.49927 18.0485 3.03564 18.0485 3.68614C18.0485 4.33664 17.5121 4.87302 16.8616 4.87302H15.8516V6.12837C22.1854 6.8131 27.144 12.8844 27.144 20.2739C27.144 20.9301 26.6077 21.4607 25.9572 21.4607ZM14.659 8.44506C9.36943 8.44506 5.02707 13.1412 4.55346 19.1441H24.7646C24.2339 13.1412 19.9486 8.44506 14.659 8.44506Z" fill="black"/>
<path d="M1.82027 23.127H27.4408C28.097 23.127 28.6277 23.6633 28.6277 24.3138C28.6277 24.9643 28.0913 25.5007 27.4408 25.5007H1.87733C1.22112 25.5007 0.627686 24.9643 0.627686 24.3138C0.627686 23.6633 1.16406 23.127 1.82027 23.127Z" fill="black"/>
</g>
<defs>
<clipPath id="clip0_40_264">
<rect width="28" height="28" fill="white" transform="matrix(-1 0 0 1 28.6277 0)"/>
</clipPath>
</defs>
</svg>
