<svg width="53" height="52" viewBox="0 0 53 52" fill="none" xmlns="http://www.w3.org/2000/svg">
<path d="M20.19 44.7135H23.0643C24.2119 44.7135 25.1361 43.807 25.1361 42.6814C25.1361 41.5559 24.2119 40.6494 23.0643 40.6494H20.19C19.0424 40.6494 18.1182 41.5559 18.1182 42.6814C18.1182 43.807 19.0424 44.7135 20.19 44.7135Z" fill="black"/>
<path d="M47.4393 9.66113H42.0667V6.47363C42.0667 4.05313 40.0557 2.09082 37.5776 2.09082H5.67681C3.19868 2.09082 1.18774 4.05313 1.18774 6.47363V46.5166C1.18774 48.9371 3.19868 50.8994 5.67681 50.8994H37.5776C40.0557 50.8994 42.0667 48.9371 42.0667 46.5166V27.6406H47.4393C49.3792 27.6406 50.9534 26.1066 50.9534 24.2141V13.0877C50.9534 11.2051 49.3792 9.66113 47.4393 9.66113ZM37.9127 46.7158H5.33149V38.5279H37.9127V46.7158ZM37.9127 34.4639H5.33149V6.47363H37.9127V9.66113H30.4174C28.4776 9.66113 26.9034 11.1951 26.9034 13.0877V24.2041C26.9034 26.0967 28.4776 27.6307 30.4174 27.6307H31.8292L31.4026 30.6787C31.2909 31.4756 31.6667 32.2725 32.3776 32.6908C33.3932 33.2885 34.287 32.8701 34.6424 32.6211L37.9127 30.3898V34.4639ZM46.8096 23.5666H41.2948C40.8682 23.5666 40.4518 23.6961 40.1065 23.9352L36.1659 26.6346L36.2674 25.8775C36.3487 25.2998 36.1659 24.7121 35.7799 24.2639C35.3838 23.8256 34.8151 23.5666 34.2159 23.5666H31.0674V13.7252H46.8198V23.5666H46.8096Z" fill="black"/>
</svg>
