<svg width="21" height="18" viewBox="0 0 21 18" fill="none" xmlns="http://www.w3.org/2000/svg">
<g clip-path="url(#clip0_2_581)">
<path d="M19.474 0.200396L0.822034 7.45846C0.822034 7.45846 -0.0628363 7.75569 0.0068385 8.30869C0.0765134 8.86168 0.794164 9.11744 0.794164 9.11744L5.48328 10.6866L5.49025 10.6935V10.6866L16.7497 3.58749C16.7497 3.58749 17.3977 3.19348 17.3768 3.58749C17.3768 3.58749 17.4952 3.65662 17.1469 3.9815C16.7985 4.30639 8.29815 11.8824 8.29815 11.8824L8.28421 12.0276L15.9345 17.8479C17.2096 18.4009 17.6764 17.2465 17.6764 17.2465L20.9999 0.63588C20.9999 -0.470111 19.467 0.200396 19.474 0.200396Z" fill="#ECFF19"/>
<path d="M11.2106 14.2533L8.17975 16.9975C8.17975 16.9975 7.94286 17.1772 7.68506 17.0666L8.26336 11.9722" fill="#ECFF19"/>
</g>
<defs>
<clipPath id="clip0_2_581">
<rect width="21" height="18" fill="white"/>
</clipPath>
</defs>
</svg>
