<svg width="55" height="55" viewBox="0 0 55 55" fill="none" xmlns="http://www.w3.org/2000/svg">
<path d="M3.86694 18.0114H14.0236C13.9814 17.8532 13.9603 13.297 13.9603 13.297C13.9603 12.1052 14.9201 11.1454 16.1119 11.1454H18.6642V7.67549C18.6642 6.48369 19.624 5.52393 20.8158 5.52393H34.2841C35.4759 5.52393 36.4357 6.49424 36.4357 7.67549V11.1454H38.988C40.1798 11.1454 41.1396 12.1052 41.1396 13.297C41.1396 13.297 41.1185 17.8427 41.0763 18.0114H51.233C52.4248 18.0114 53.3845 18.9712 53.3845 20.163V48.0489C53.3845 49.2407 52.4248 50.2005 51.233 50.2005H3.8564C2.6646 50.2005 1.70483 49.2407 1.70483 48.0489V20.163C1.71538 18.9712 2.67515 18.0114 3.86694 18.0114ZM36.8365 15.4485H34.2841C33.0923 15.4485 32.1326 14.4888 32.1326 13.297V9.82705H22.9673V13.297C22.9673 14.4888 22.0076 15.4485 20.8158 15.4485H18.2634C18.2634 15.4485 18.2423 17.8427 18.2001 18.0009H36.8998C36.8576 17.8427 36.8365 15.4485 36.8365 15.4485ZM6.01851 45.8974H49.0814V34.3063H29.6962V36.2575C29.6962 37.4493 28.7365 38.4091 27.5447 38.4091C26.3529 38.4091 25.3931 37.4493 25.3931 36.2575V34.3063H6.00796V45.8974H6.01851ZM6.02905 30.0032H25.4142V28.2735C25.4142 27.0817 26.374 26.122 27.5658 26.122C28.7576 26.122 29.7173 27.0817 29.7173 28.2735V30.0032H49.0919V22.3146H6.02905V30.0032Z" fill="black"/>
</svg>
