<svg width="24" height="24" viewBox="0 0 24 24" fill="none" xmlns="http://www.w3.org/2000/svg">
<path fill-rule="evenodd" clip-rule="evenodd" d="M5.55976 4.06048C5.72244 4.02226 5.89365 4.00216 6.07125 4.00254L20.0407 5.00036C21.2924 5.02246 22.5171 6.06045 21.9125 7.40906C21.7948 7.67166 21.2632 8.74107 20.418 10.4238C20.0729 11.1108 19.7188 11.8139 19.3647 12.5159C19.164 12.9135 19.164 12.9135 19.0224 13.194C18.9575 13.3224 18.9323 13.3724 18.917 13.4025C18.6296 14.1416 18.0227 14.7126 17.2645 14.9532L17.1169 15H7.038L7.02369 14.9993L5.04955 14.9988C4.48131 15.027 4.02697 15.4813 4 16L3.99821 16.9401C4.03254 17.5124 4.49001 17.9694 5 18H5.17071C5.58254 16.8348 6.69378 16 8 16C9.30622 16 10.4175 16.8348 10.8293 18H13.1707C13.5825 16.8348 14.6938 16 16 16C17.6569 16 19 17.3431 19 19C19 20.6569 17.6569 22 16 22C14.6938 22 13.5825 21.1652 13.1707 20H10.8293C10.4175 21.1652 9.30622 22 8 22C6.69331 22 5.58174 21.1646 5.17026 19.9987L4.94324 19.9984C3.36275 19.9085 2.09682 18.6439 2 17L2.00123 15.9504C2.0802 14.3588 3.35036 13.0856 4.98992 13.0005L4.01005 6.14142L4 6C4 5.35306 3.67086 4.58508 3.29289 4.20711C3.1949 4.10911 2.75845 4 2 4V2C3.24155 2 4.13843 2.22422 4.70711 2.79289C5.04216 3.12794 5.33674 3.56893 5.55976 4.06048ZM7.11287 13H16.7694C16.9028 12.9274 17.0065 12.8078 17.0588 12.6622L17.1076 12.5488C17.1311 12.5023 17.1311 12.5023 17.2371 12.2923C17.3786 12.0122 17.3786 12.0122 17.579 11.6151C17.9326 10.9141 18.2863 10.2119 18.6163 9.55493L18.6308 9.52609C19.2089 8.37516 19.6505 7.49032 19.8934 6.99493L6.01026 6.00073L6.99015 12.86C6.99973 12.9278 7.04866 12.9822 7.11287 13ZM16 20C16.5523 20 17 19.5523 17 19C17 18.4477 16.5523 18 16 18C15.4477 18 15 18.4477 15 19C15 19.5523 15.4477 20 16 20ZM8 20C8.55228 20 9 19.5523 9 19C9 18.4477 8.55228 18 8 18C7.44772 18 7 18.4477 7 19C7 19.5523 7.44772 20 8 20Z" fill="white"/>
</svg>
