<svg width="61" height="63" viewBox="0 0 61 63" fill="none" xmlns="http://www.w3.org/2000/svg">
<path d="M49.3526 10.4243C49.0622 10.1815 48.7228 10.0091 48.3593 9.91965C47.9959 9.83024 47.6178 9.82612 47.2526 9.9076C44.5812 10.4861 41.8235 10.4935 39.1492 9.92926C36.4749 9.36502 33.9407 8.24113 31.7026 6.62677C31.2841 6.32677 30.7869 6.16602 30.2776 6.16602C29.7683 6.16602 29.2711 6.32677 28.8526 6.62677C26.6145 8.24113 24.0803 9.36502 21.406 9.92926C18.7317 10.4935 15.974 10.4861 13.3026 9.9076C12.9374 9.82612 12.5593 9.83024 12.1959 9.91965C11.8324 10.0091 11.493 10.1815 11.2026 10.4243C10.9126 10.6674 10.6789 10.9746 10.5188 11.3233C10.3588 11.672 10.2763 12.0533 10.2776 12.4393V31.6851C10.2754 35.389 11.1295 39.0398 12.7689 42.3335C14.4083 45.6272 16.7856 48.4686 19.7026 50.6209L28.8276 57.3376C29.251 57.6491 29.7578 57.8165 30.2776 57.8165C30.7974 57.8165 31.3042 57.6491 31.7276 57.3376L40.8526 50.6209C43.7697 48.4686 46.1469 45.6272 47.7863 42.3335C49.4257 39.0398 50.2798 35.389 50.2776 31.6851V12.4393C50.2789 12.0533 50.1964 11.672 50.0364 11.3233C49.8763 10.9746 49.6427 10.6674 49.3526 10.4243ZM45.2776 31.6851C45.2795 34.5649 44.6158 37.4035 43.3417 39.9647C42.0676 42.526 40.22 44.7357 37.9526 46.4101L30.2776 52.0676L22.6026 46.4101C20.3352 44.7357 18.4876 42.526 17.2135 39.9647C15.9394 37.4035 15.2757 34.5649 15.2776 31.6851V15.4101C20.5187 15.8736 25.7677 14.6171 30.2776 11.8193C34.7875 14.6171 40.0365 15.8736 45.2776 15.4101V31.6851Z" fill="black"/>
</svg>
