<svg width="18" height="11" viewBox="0 0 18 11" fill="none" xmlns="http://www.w3.org/2000/svg">
<path d="M0.172868 2.28384C0.0214615 1.9034 -0.172002 1.50676 0.286423 1.29226C1.21589 1.28012 2.14536 1.26797 3.07903 1.25583C3.48278 1.26797 3.66784 1.55533 3.88233 1.95601C4.50899 3.11759 5.16087 4.27511 5.94735 5.33955C6.2039 5.68762 6.63709 5.82118 6.97775 5.2667C7.0156 4.51795 7.05346 3.7692 7.09131 3.02045C6.96514 2.15028 6.64971 1.63628 6.09875 1.58366C5.78332 1.28821 6.01043 1.04537 6.717 0.91586C7.83993 0.685165 8.81987 0.790394 9.68204 0.895624C10.4096 0.940144 10.5148 1.41368 10.5022 1.95601C10.4769 2.9476 10.4559 3.94323 10.4559 4.93482C10.6704 5.9426 11.2424 5.53787 11.6209 5.10076C12.298 4.17393 12.8868 3.27138 13.3789 2.25551C13.8878 1.21131 14.0266 1.28821 14.3841 1.28416C15.2378 1.28012 16.1799 1.23964 16.8612 1.26393C18.2828 1.18298 18.1188 1.79008 17.7192 2.43359C17.0295 3.55469 16.1421 4.56652 15.3514 5.635C14.8719 6.26233 14.8803 6.65492 15.3892 6.99489C16.1421 7.79221 16.958 8.53691 17.6435 9.38684C18.3879 10.3137 17.8412 10.5687 17.1472 10.6375C16.3187 10.6375 15.4902 10.6375 14.6616 10.6375C13.9551 10.6496 13.3158 10.4796 12.8658 9.75515C11.827 8.43168 11.0531 8.06742 10.7419 8.81213C10.6073 9.13996 10.4938 9.58111 10.498 10.0101C10.5022 10.6091 10.1279 10.6577 9.61896 10.6739C9.07221 10.6739 8.50444 10.8034 7.97451 10.6739C6.09875 10.2165 4.2987 9.3747 2.5449 6.48089C1.75423 5.23027 0.963547 3.86229 0.172868 2.28384Z" fill="#ECFF19"/>
</svg>
