<svg width="18" height="14" viewBox="0 0 18 14" fill="none" xmlns="http://www.w3.org/2000/svg">
<path d="M18 5.16678C18 3.99614 17.7543 2.74189 17.2628 1.73849C16.9352 1.32041 16.4437 0.98594 15.8703 0.902324C13.5768 0.651473 11.2833 0.567857 8.98976 0.651474C6.69625 0.651474 4.40273 0.73509 2.19113 0.902324C1.69966 0.98594 1.2901 1.15317 0.962457 1.48764C0.225256 2.15658 0.143345 3.41083 0.0614334 4.33061C-0.0204778 6.17018 -0.0204778 7.92613 0.0614334 9.7657C0.0614334 10.351 0.143345 10.8527 0.307167 11.438C0.389078 11.8561 0.634812 12.2742 0.880546 12.6087C1.20819 12.9431 1.61775 13.194 2.10921 13.2776C3.91126 13.5285 5.6314 13.6121 7.43345 13.5285C10.3003 13.5285 12.8396 13.5285 15.7884 13.2776C16.2799 13.194 16.6894 12.9431 17.0171 12.6087C17.2628 12.3578 17.4266 12.107 17.5085 11.7725C17.8362 10.8527 17.9181 9.93293 17.9181 8.92953C18 8.51145 18 5.66848 18 5.16678ZM7.1058 9.51485V4.33061L11.9386 6.92273C10.628 7.67528 8.82594 8.51145 7.1058 9.51485Z" fill="#ECFF19"/>
</svg>
