<svg width="46" height="52" viewBox="0 0 46 52" fill="none" xmlns="http://www.w3.org/2000/svg">
<g clip-path="url(#clip0_75_141)">
<path d="M41.1817 0.362305H4.8183C2.93302 0.362305 1.39929 2.06274 1.39929 4.15305V24.2319C1.39929 26.3222 2.93302 28.0227 4.81839 28.0227H10.5746L4.22767 48.5257C3.88716 49.6259 4.41535 50.8236 5.40759 51.2012C5.6118 51.279 5.81979 51.3158 6.02428 51.3158C6.8132 51.3158 7.55028 50.7665 7.8208 49.8929L8.63999 47.2462H31.1746C31.9549 49.6436 34.0272 51.3622 36.455 51.3622C39.5495 51.3622 42.067 48.5709 42.067 45.1403C42.067 41.7646 39.6291 39.0101 36.6032 38.9225L33.2291 28.0225H41.1815C43.0667 28.0225 44.6006 26.3221 44.6006 24.2317V4.15305C44.6007 2.06274 43.067 0.362305 41.1817 0.362305ZM36.4553 43.1303C37.4549 43.1303 38.2683 44.032 38.2683 45.1403C38.2683 46.2487 37.4549 47.1503 36.4553 47.1503C35.4557 47.1503 34.6424 46.2486 34.6424 45.1403C34.6423 44.032 35.4557 43.1303 36.4553 43.1303ZM31.1749 43.0343H9.9439L14.5909 28.0225H29.213L32.9968 40.2458C32.1746 40.9615 31.536 41.9247 31.1749 43.0343ZM40.8018 23.8108H5.19825V20.1026H40.8019V23.8108H40.8018ZM40.8018 15.8907H5.19825V4.5742H21.1005V10.1975C21.1005 11.3605 21.951 12.3034 23 12.3034C24.049 12.3034 24.8995 11.3605 24.8995 10.1975V4.5742H40.8018V15.8907Z" fill="black"/>
</g>
<defs>
<clipPath id="clip0_75_141">
<rect width="46" height="51" fill="white" transform="translate(0 0.362305)"/>
</clipPath>
</defs>
</svg>
