<svg width="58" height="58" viewBox="0 0 58 58" fill="none" xmlns="http://www.w3.org/2000/svg">
<g clip-path="url(#clip0_75_160)">
<path d="M51.5797 14.2713H50.2937V6.68777C50.2937 5.95483 49.8692 5.28618 49.1996 4.96357C42.9473 1.95351 35.9623 0.362305 28.9999 0.362305C22.0376 0.362305 15.0526 1.95351 8.8003 4.96357C8.13067 5.28599 7.70611 5.95483 7.70611 6.68777V14.2713H6.42015C3.57444 14.2713 1.25952 16.5465 1.25952 19.3429V25.7104C1.25952 28.5071 3.57464 30.7821 6.42015 30.7821H7.70611V51.0368C7.70611 51.7698 8.13067 52.4384 8.8003 52.761C15.0526 55.7713 22.0376 57.3623 28.9999 57.3623C35.9623 57.3623 42.9473 55.7713 49.1996 52.7612C49.8692 52.4388 50.2937 51.77 50.2937 51.037V30.7823H51.5797C54.4254 30.7823 56.7403 28.5071 56.7403 25.7106V19.3431C56.7405 16.5465 54.4254 14.2713 51.5797 14.2713ZM11.6132 14.9432H46.3866V27.4542H11.6132V14.9432ZM11.6132 7.90358C22.7283 2.9273 35.2715 2.9273 46.3866 7.90358V11.1034H11.6132V7.90358ZM5.16642 25.7106V19.3431C5.16642 18.6639 5.72884 18.1112 6.41996 18.1112H7.70592V26.9425H6.41996C5.72884 26.9425 5.16642 26.3898 5.16642 25.7106ZM46.3866 49.8212C35.2715 54.7975 22.7283 54.7975 11.6132 49.8212V31.2941H46.3866V49.8212ZM52.8334 25.7106C52.8334 26.3898 52.271 26.9425 51.5799 26.9425H50.2939V18.111H51.5799C52.271 18.111 52.8334 18.6637 52.8334 19.3429V25.7106Z" fill="black"/>
<path d="M28.0328 17.2568L21.586 23.5924C21.0521 24.1173 21.0521 24.9683 21.586 25.4932C21.8531 25.7556 22.2031 25.8868 22.553 25.8868C22.903 25.8868 23.2529 25.7556 23.5201 25.4932L29.9669 19.1576C30.5008 18.6327 30.5008 17.7817 29.9669 17.2568C29.4328 16.7321 28.5669 16.7321 28.0328 17.2568Z" fill="black"/>
<path d="M23.5201 17.2567C22.986 16.7322 22.1201 16.7322 21.586 17.2567L15.1392 23.5921C14.6053 24.117 14.6053 24.968 15.1392 25.4929C15.4064 25.7552 15.7563 25.8865 16.1063 25.8865C16.4562 25.8865 16.8062 25.7552 17.0733 25.4929L23.5201 19.1572C24.0542 18.6323 24.0542 17.7816 23.5201 17.2567Z" fill="black"/>
<path d="M41.893 36.542C42.2523 36.542 42.606 36.3981 42.86 36.1484C43.1139 35.8987 43.2606 35.5513 43.2606 35.198C43.2606 34.8449 43.1141 34.4971 42.86 34.2476C42.606 33.9981 42.2543 33.854 41.893 33.854C41.5335 33.854 41.1817 33.9979 40.9259 34.2476C40.672 34.4971 40.5254 34.8447 40.5254 35.198C40.5254 35.5513 40.6719 35.8987 40.9259 36.1484C41.1817 36.3981 41.5335 36.542 41.893 36.542Z" fill="black"/>
<path d="M21.2631 36.542C22.0192 36.542 22.6307 35.9411 22.6307 35.198C22.6307 34.4549 22.0192 33.854 21.2631 33.854C20.5091 33.854 19.8955 34.4549 19.8955 35.198C19.8955 35.9411 20.5093 36.542 21.2631 36.542Z" fill="black"/>
<path d="M26.4206 36.542C27.1767 36.542 27.7882 35.9411 27.7882 35.198C27.7882 34.4549 27.1767 33.854 26.4206 33.854C25.6664 33.854 25.053 34.4549 25.053 35.198C25.053 35.9411 25.6664 36.542 26.4206 36.542Z" fill="black"/>
<path d="M31.578 36.542C32.334 36.542 32.9456 35.9411 32.9456 35.198C32.9456 34.4549 32.334 33.854 31.578 33.854C30.8238 33.854 30.2104 34.4549 30.2104 35.198C30.2104 35.9411 30.8238 36.542 31.578 36.542Z" fill="black"/>
<path d="M36.7355 36.542C37.4917 36.542 38.1031 35.9411 38.1031 35.198C38.1031 34.4549 37.4917 33.854 36.7355 33.854C35.9813 33.854 35.3679 34.4549 35.3679 35.198C35.3679 35.9411 35.9813 36.542 36.7355 36.542Z" fill="black"/>
<path d="M16.1059 36.542C16.4654 36.542 16.8189 36.3981 17.0729 36.1484C17.3288 35.8987 17.4735 35.5513 17.4735 35.198C17.4735 34.8449 17.3288 34.4971 17.0729 34.2476C16.8189 33.9981 16.4654 33.854 16.1059 33.854C15.7465 33.854 15.3946 33.9979 15.1388 34.2476C14.8849 34.4971 14.7383 34.8447 14.7383 35.198C14.7383 35.5513 14.8847 35.8987 15.1388 36.1484C15.3946 36.3981 15.7465 36.542 16.1059 36.542Z" fill="black"/>
<path d="M41.893 7.55176C41.5335 7.55176 41.1817 7.6957 40.9259 7.94538C40.672 8.19488 40.5254 8.54245 40.5254 8.89577C40.5254 9.24909 40.6719 9.59647 40.9259 9.84615C41.1817 10.0956 41.5335 10.2398 41.893 10.2398C42.2543 10.2398 42.606 10.0958 42.86 9.84615C43.1159 9.59647 43.2606 9.24909 43.2606 8.89577C43.2606 8.54264 43.1161 8.19488 42.86 7.94538C42.6058 7.6957 42.2543 7.55176 41.893 7.55176Z" fill="black"/>
<path d="M36.7355 7.55176C35.9813 7.55176 35.3679 8.15266 35.3679 8.89577C35.3679 9.63888 35.9813 10.2398 36.7355 10.2398C37.4917 10.2398 38.1031 9.63888 38.1031 8.89577C38.1031 8.15266 37.4915 7.55176 36.7355 7.55176Z" fill="black"/>
<path d="M31.578 7.55176C30.8238 7.55176 30.2104 8.15266 30.2104 8.89577C30.2104 9.63888 30.8238 10.2398 31.578 10.2398C32.334 10.2398 32.9456 9.63888 32.9456 8.89577C32.9456 8.15266 32.334 7.55176 31.578 7.55176Z" fill="black"/>
<path d="M26.4206 7.55176C25.6664 7.55176 25.053 8.15266 25.053 8.89577C25.053 9.63888 25.6664 10.2398 26.4206 10.2398C27.1767 10.2398 27.7882 9.63888 27.7882 8.89577C27.7882 8.15266 27.1767 7.55176 26.4206 7.55176Z" fill="black"/>
<path d="M21.2631 7.55176C20.5091 7.55176 19.8955 8.15266 19.8955 8.89577C19.8955 9.63888 20.5091 10.2398 21.2631 10.2398C22.0192 10.2398 22.6307 9.63888 22.6307 8.89577C22.6307 8.15266 22.0192 7.55176 21.2631 7.55176Z" fill="black"/>
<path d="M16.1059 7.55176C15.7465 7.55176 15.3927 7.6957 15.1388 7.94538C14.8849 8.19507 14.7383 8.54245 14.7383 8.89577C14.7383 9.24909 14.8847 9.59647 15.1388 9.84615C15.3927 10.0956 15.7463 10.2398 16.1059 10.2398C16.4671 10.2398 16.8189 10.0958 17.0729 9.84615C17.3288 9.59647 17.4735 9.24909 17.4735 8.89577C17.4735 8.54264 17.3288 8.19488 17.0729 7.94538C16.8189 7.6957 16.4673 7.55176 16.1059 7.55176Z" fill="black"/>
</g>
<defs>
<clipPath id="clip0_75_160">
<rect width="58" height="57" fill="white" transform="translate(0 0.362305)"/>
</clipPath>
</defs>
</svg>
