<svg width="54" height="53" viewBox="0 0 54 53" fill="none" xmlns="http://www.w3.org/2000/svg">
<path d="M11.3178 48.6617C9.55109 48.6617 7.78442 48.0117 6.45942 46.7117C5.13442 45.4117 4.47192 43.6784 4.47192 41.9451C4.47192 40.2117 5.13442 38.4784 6.45942 37.1784L20.5928 23.3117C18.1636 15.9451 21.6969 7.92842 28.9844 4.67842C32.9594 2.94508 37.5969 2.94508 41.7928 4.67842C42.4553 4.89508 42.8969 5.54508 43.1178 6.19508C43.3386 6.84508 43.1178 7.71175 42.4553 8.14508L34.0636 16.1618L32.5178 14.6451L34.0636 16.1618L37.5969 19.6284L45.9886 11.3951C46.4303 10.9618 47.3136 10.7451 47.9761 10.7451C48.6386 10.9618 49.3011 11.3951 49.5219 12.0451C51.2886 15.7284 51.2886 19.8451 49.9636 23.7451C48.4178 27.6451 45.5469 30.4617 41.7928 32.1951C38.2594 33.7117 34.2844 33.9284 30.5303 32.8451L16.3969 46.7117C14.8511 48.0117 13.0844 48.6617 11.3178 48.6617ZM35.3886 7.49508C33.8428 7.49508 32.2969 7.71175 30.7511 8.36175C25.2303 10.7451 22.8011 17.2451 25.2303 22.6617C25.6719 23.5284 25.4511 24.3951 24.7886 25.0451L9.55109 39.9951C9.10942 40.6451 8.88859 41.2951 8.88859 41.9451C8.88859 42.5951 9.10942 43.2451 9.55109 43.6784C10.4344 44.5451 11.9803 44.5451 13.0844 43.6784L28.3219 28.7284C28.9844 28.0784 29.8678 27.8617 30.7511 28.2951C33.6219 29.5951 36.9344 29.5951 39.8053 28.2951C42.4553 26.9951 44.4428 25.0451 45.5469 22.2284C46.4303 20.4951 46.6511 18.7618 46.4303 17.0284L40.6886 22.6617C38.9219 24.3951 36.2719 24.3951 34.5053 22.6617L30.9719 19.1951C29.2053 17.4618 29.2053 14.8618 30.9719 13.1284L36.7136 7.49508C36.2719 7.49508 35.8303 7.49508 35.3886 7.49508Z" fill="black"/>
</svg>
