<svg width="21" height="23" viewBox="0 0 21 23" fill="none" xmlns="http://www.w3.org/2000/svg">
<path d="M19.2356 12.8845C18.6896 17.5484 15.3926 17.8465 14.7836 18.0595C14.5316 18.1447 12.1166 18.7623 9.11364 18.5706L5.83764 22.2549V18.0169H5.81664C1.42764 16.7391 1.57464 11.99 1.61664 9.49837C1.65864 7.0067 2.12064 4.96226 3.46464 3.578C5.87964 1.32059 10.8356 1.66133 10.8356 1.66133C15.0356 1.68263 17.0306 2.9817 17.4926 3.42892C19.0256 4.79189 19.8236 8.07152 19.2356 12.8845ZM18.6266 2.23633C18.0806 1.72522 15.8546 0.0428132 10.8986 0.0215169C10.8986 0.0215169 5.06064 -0.34052 2.20464 2.36411C0.629639 4.00392 0.0626386 6.41041 0.0206385 9.39189C-0.0423615 12.3734 -0.105361 17.9743 5.08164 19.4863V21.8076C5.08164 21.8076 5.03964 22.7447 5.64864 22.9363C6.36264 23.1706 6.78264 22.4465 7.47564 21.6799C7.85364 21.2539 8.37864 20.6363 8.75664 20.1678C12.3056 20.4873 15.0356 19.7632 15.3506 19.6567C16.0646 19.4224 20.1176 18.8687 20.7896 13.2891C21.4616 7.53911 20.4536 3.87615 18.6266 2.23633Z" fill="#ECFF19"/>
<path d="M15.4556 13.5874C15.4556 13.5874 14.7836 13.0124 14.4686 12.7568C14.1536 12.5226 13.6706 12.2031 13.3976 12.0541C12.9146 11.7772 12.4106 11.9476 12.2006 12.2244L11.7806 12.7781C11.5706 13.055 11.2136 13.0124 11.1296 12.9911C10.4996 12.8207 9.82764 12.4374 9.13464 11.7559C8.44164 11.0744 8.02164 10.3504 7.87464 9.62628L7.85364 9.58369C7.81164 9.28554 7.85364 9.13647 7.97964 8.92351L8.00064 8.90221C8.29464 8.62536 8.81964 8.30591 8.90364 7.98647C9.11364 7.43276 8.18964 6.28276 8.06364 6.0911C8.06364 6.0911 7.39164 5.19665 7.16064 5.02628C6.90864 4.81332 6.50964 4.68554 6.11064 4.9411H6.08964C4.93464 5.72906 4.53564 6.17628 4.64064 6.85776L4.70364 7.13462C5.29164 8.98739 6.40464 10.9892 8.08464 12.7568C9.74364 14.4818 11.5496 15.5254 13.3136 16.2494C13.7756 16.3985 14.2586 16.2707 14.7416 15.8448C15.1196 15.4828 15.4136 15.0994 15.6236 14.6948C15.8546 14.2689 15.7706 13.8642 15.4556 13.5874Z" fill="#ECFF19"/>
<path d="M12.7046 9.49821C12.6416 9.49821 12.5786 9.43432 12.5786 9.37043C12.5576 8.88062 12.4316 8.51858 12.2006 8.26302C11.9696 8.00747 11.6336 7.87969 11.1926 7.8584C11.1296 7.8584 11.0667 7.79451 11.0667 7.70932C11.0667 7.62414 11.1297 7.58154 11.2137 7.58154C11.7386 7.60284 12.1376 7.77321 12.4106 8.07136C12.6836 8.36951 12.8306 8.79543 12.8726 9.34914C12.8516 9.43432 12.7886 9.49821 12.7046 9.49821Z" fill="#ECFF19"/>
<path d="M14.0067 9.96701C13.9227 9.96701 13.8807 9.90312 13.8807 9.81794C13.9017 8.90219 13.6287 8.11423 13.0827 7.49664C12.8097 7.1772 12.4737 6.94294 12.0957 6.77257C11.7177 6.6022 11.2767 6.49571 10.7727 6.45312C10.7097 6.45312 10.6467 6.38923 10.6467 6.30405C10.6467 6.21886 10.7097 6.17627 10.7937 6.17627C11.8437 6.26145 12.6837 6.64479 13.2717 7.30497C13.8597 7.98645 14.1537 8.81701 14.1327 9.81794C14.1537 9.90312 14.0907 9.96701 14.0067 9.96701Z" fill="#ECFF19"/>
<path d="M15.3506 10.4993C15.2876 10.4993 15.2246 10.4354 15.2246 10.3715C15.2246 9.56225 15.0986 8.81688 14.8676 8.17799C14.6366 7.5391 14.2796 6.9854 13.8176 6.51688C13.3556 6.04836 12.8306 5.68632 12.2636 5.45207C11.6966 5.21781 11.0456 5.09003 10.3526 5.09003C10.2896 5.09003 10.2266 5.02614 10.2266 4.96225C10.2266 4.87706 10.2896 4.83447 10.3526 4.83447C11.8016 4.85577 13.0196 5.34558 14.0066 6.34651C14.4896 6.83632 14.8676 7.43262 15.1196 8.1141C15.3716 8.79558 15.4976 9.56225 15.4976 10.4141C15.4976 10.4354 15.4346 10.4993 15.3506 10.4993Z" fill="#ECFF19"/>
</svg>
