<svg width="27" height="28" viewBox="0 0 27 28" fill="none" xmlns="http://www.w3.org/2000/svg">
<g clip-path="url(#clip0_73_43)">
<path d="M14.4986 5.96115H12.5013V3.98486H10.8312V9.60754H12.5013V7.63125H14.4986V9.60754H16.1687V3.98486H14.4986V5.96115Z" fill="black"/>
<path d="M20.1248 7.93144V0.703125H6.93432V7.93144H0V27.7031H27V7.93144H20.1248ZM18.4547 26.033H17.0629V21.2923H18.4547V26.033ZM15.3928 26.033H11.6663V21.2923H15.3928V26.033ZM9.99618 26.033H8.60443V21.2923H9.99618V26.033ZM25.3299 26.033H20.1248V19.6222H6.93432V26.033H1.6701V9.60155H8.60443V2.37323H18.4547V9.60155H25.3299V26.033Z" fill="black"/>
<path d="M6.40204 11.8281H3.61853V13.4982H6.40204V11.8281Z" fill="black"/>
<path d="M10.6469 11.8281H7.8634V13.4982H10.6469V11.8281Z" fill="black"/>
<path d="M14.8918 11.8281H12.1083V13.4982H14.8918V11.8281Z" fill="black"/>
<path d="M19.1367 11.8281H16.3531V13.4982H19.1367V11.8281Z" fill="black"/>
<path d="M23.3814 11.8281H20.5979V13.4982H23.3814V11.8281Z" fill="black"/>
<path d="M6.40204 15.7251H3.61853V17.3952H6.40204V15.7251Z" fill="black"/>
<path d="M10.6469 15.7251H7.8634V17.3952H10.6469V15.7251Z" fill="black"/>
<path d="M14.8918 15.7251H12.1083V17.3952H14.8918V15.7251Z" fill="black"/>
<path d="M19.1367 15.7251H16.3531V17.3952H19.1367V15.7251Z" fill="black"/>
<path d="M23.3814 15.7251H20.5979V17.3952H23.3814V15.7251Z" fill="black"/>
</g>
<defs>
<clipPath id="clip0_73_43">
<rect width="27" height="27" fill="white" transform="translate(0 0.703125)"/>
</clipPath>
</defs>
</svg>
