<svg width="28" height="29" viewBox="0 0 28 29" fill="none" xmlns="http://www.w3.org/2000/svg">
<path d="M26.2755 22.9374H24.551V17.0207C26.5165 16.6201 28 14.8782 28 12.7962C28 10.419 26.066 8.48497 23.6888 8.48497C21.3116 8.48497 19.3776 10.419 19.3776 12.7962C19.3776 14.8782 20.8611 16.6201 22.8265 17.0207V22.9375H21.102V20.1541H19.3776V22.9375H17.6531V9.02664L8.82651 2.51859L5.14668 5.23184V2.24854H3.42219V6.50337L0 9.02664V27.1579H17.6531V24.6619H19.3776V27.1579H21.102V24.6619H22.8265V27.1579H24.551V24.6619H26.2755V27.1579H28V20.154H26.2755V22.9374ZM21.102 12.7962C21.102 11.3699 22.2625 10.2095 23.6888 10.2095C25.1151 10.2095 26.2755 11.3699 26.2755 12.7962C26.2755 14.2225 25.1151 15.3829 23.6888 15.3829C22.2625 15.3829 21.102 14.2225 21.102 12.7962ZM11.2169 25.4334H6.43619V16.6476H11.2169V25.4334ZM15.9286 25.4334H12.9414V14.9231H4.7117V25.4334H1.72449V9.89773L8.82651 4.66115L15.9285 9.89773V25.4334H15.9286Z" fill="black"/>
</svg>
