<svg width="30" height="31" viewBox="0 0 30 31" fill="none" xmlns="http://www.w3.org/2000/svg">
<path d="M17.1634 18.4085L17.9952 17.5748L18.0248 17.6044C18.5412 18.1206 19.2295 18.405 19.9633 18.405C20.697 18.405 21.3853 18.1207 21.9012 17.6049L22.6953 16.8123C23.9144 15.5932 25.1898 12.3907 23.6156 10.8165C23.1426 10.3435 22.4576 10.0936 21.6346 10.0936C20.283 10.0936 18.5572 10.8001 17.6197 11.7376L16.828 12.5306C16.3118 13.0468 16.0274 13.7352 16.0274 14.469C16.0274 15.2029 16.3117 15.8911 16.8279 16.4073L16.8576 16.4369L16.1098 17.1847C15.8999 17.1055 15.6756 17.0623 15.444 17.0623C15.1732 17.0623 14.9122 17.1204 14.6729 17.228C14.613 17.244 14.5541 17.2629 14.4963 17.2847L13.1743 15.9628C14.0472 15.0157 14.0245 13.5351 13.1056 12.6161L10.3125 9.82286C9.99833 9.50892 9.48904 9.50892 9.1748 9.82286C8.86066 10.137 8.86066 10.6464 9.1748 10.9606L11.9679 13.7538C12.2593 14.0451 12.2809 14.5051 12.0335 14.8222L8.67338 11.4619C8.35914 11.1479 7.84995 11.1479 7.53571 11.4619C7.22157 11.776 7.22157 12.2854 7.53571 12.5996L10.8959 15.9598C10.5786 16.2071 10.1187 16.1857 9.82742 15.8943L7.03429 13.1011C6.72005 12.7871 6.21086 12.7871 5.89662 13.1011C5.58248 13.4152 5.58248 13.9246 5.89662 14.2388L8.68975 17.0319C9.16106 17.5032 9.78005 17.7387 10.3991 17.7387C10.9871 17.7387 11.5751 17.5258 12.0365 17.1005L13.3311 18.3951L8.57763 23.1485C7.8448 23.8814 7.8447 25.0741 8.57773 25.8071L8.6253 25.8546C8.97955 26.2087 9.45167 26.4039 9.95439 26.4039C10.4573 26.4039 10.9294 26.2087 11.2837 25.8546L15.2529 21.8854L19.3221 25.9546C19.6763 26.3087 20.1483 26.5039 20.6514 26.5039C21.1543 26.5039 21.6262 26.3087 21.9799 25.9551L22.0281 25.9069C22.7611 25.174 22.761 23.9813 22.0281 23.2485L17.1634 18.4085ZM10.1463 24.7169C10.0784 24.7848 9.99712 24.795 9.9547 24.795C9.91227 24.795 9.83096 24.7847 9.76308 24.7169L9.71571 24.6694C9.61177 24.5656 9.61177 24.3899 9.71571 24.2862L13.6899 20.3117C13.7209 20.3478 13.7516 20.3837 13.7856 20.4177L14.1156 20.7477L10.1463 24.7169ZM20.8913 24.7688L20.8431 24.817C20.7752 24.8849 20.6939 24.8951 20.6517 24.8951C20.6092 24.8951 20.5278 24.8849 20.4601 24.817L14.9233 19.2801C14.8194 19.1764 14.8194 19.0007 14.9233 18.897L14.9709 18.8494C15.0388 18.7814 15.12 18.7714 15.1624 18.7714C15.2048 18.7714 15.2861 18.7815 15.3539 18.8494L20.8909 24.3863C20.9947 24.49 20.9947 24.6657 20.8913 24.7688ZM21.5582 15.6742L20.7641 16.4668C20.5517 16.6793 20.2673 16.7962 19.9634 16.7962C19.6592 16.7962 19.3749 16.6793 19.1625 16.4669L17.9656 15.2698C17.7532 15.0575 17.6362 14.7731 17.6362 14.4691C17.6362 14.1651 17.7532 13.8807 17.9661 13.6677L18.7579 12.8747C19.3217 12.3108 20.582 11.7024 21.6347 11.7024C21.9046 11.7024 22.2701 11.746 22.4782 11.9541C23.1137 12.5898 22.4529 14.7795 21.5582 15.6742Z" fill="black"/>
<path d="M29.0536 4.15738C29.5763 4.15738 30 3.73364 30 3.21101C30 2.68839 29.5763 2.26465 29.0536 2.26465H0.946364C0.423737 2.26465 0 2.68839 0 3.21101C0 3.73364 0.423737 4.15738 0.946364 4.15738H3.12303V6.94919H1.72717C1.20455 6.94919 0.780808 7.37293 0.780808 7.89556V28.1953C0.780808 28.7179 1.20455 29.1416 1.72717 29.1416H28.2729C28.7956 29.1416 29.2193 28.7179 29.2193 28.1953V7.89556C29.2193 7.37293 28.7956 6.94919 28.2729 6.94919H26.8771V4.15738H29.0536ZM27.3265 27.2489H2.67354V8.84192H27.3265V27.2489ZM24.9842 6.94919H5.01576V4.15738H24.9842V6.94919Z" fill="black"/>
</svg>
