<svg width="20" height="20" viewBox="0 0 20 20" fill="none" xmlns="http://www.w3.org/2000/svg">
<path d="M15.4036 3.82457H4.59655C3.98237 3.82457 3.39334 4.06855 2.95904 4.50284C2.52475 4.93714 2.28076 5.52617 2.28076 6.14036V13.8597C2.28076 14.4738 2.52475 15.0629 2.95904 15.4972C3.39334 15.9315 3.98237 16.1754 4.59655 16.1754H15.4036C16.0178 16.1754 16.6068 15.9315 17.0411 15.4972C17.4754 15.0629 17.7194 14.4738 17.7194 13.8597V6.14036C17.7194 5.52617 17.4754 4.93714 17.0411 4.50284C16.6068 4.06855 16.0178 3.82457 15.4036 3.82457ZM15.0871 5.36843L10.5481 9.90737C10.4764 9.97972 10.391 10.0372 10.2969 10.0763C10.2029 10.1155 10.102 10.1357 10.0001 10.1357C9.89816 10.1357 9.79726 10.1155 9.70319 10.0763C9.60913 10.0372 9.52375 9.97972 9.45199 9.90737L4.91304 5.36843H15.0871ZM16.1755 13.8597C16.1755 14.0644 16.0942 14.2607 15.9494 14.4055C15.8046 14.5503 15.6083 14.6316 15.4036 14.6316H4.59655C4.39182 14.6316 4.19548 14.5503 4.05071 14.4055C3.90595 14.2607 3.82462 14.0644 3.82462 13.8597V6.45685L8.36357 10.9958C8.79778 11.4295 9.38637 11.6731 10.0001 11.6731C10.6137 11.6731 11.2023 11.4295 11.6366 10.9958L16.1755 6.45685V13.8597Z" fill="white"/>
</svg>
