<svg width="18" height="14" viewBox="0 0 18 14" fill="none" xmlns="http://www.w3.org/2000/svg">
<g clip-path="url(#clip0_7_163)">
<path d="M15.9275 0.207386L1.52951 5.8101C1.52951 5.8101 0.84645 6.03955 0.900234 6.46642C0.954018 6.89329 1.50799 7.09072 1.50799 7.09072L5.12766 8.30197L5.13304 8.30731V8.30197L13.8246 2.82199C13.8246 2.82199 14.3247 2.51784 14.3086 2.82199C14.3086 2.82199 14.4 2.87535 14.1311 3.12613C13.8622 3.37692 7.30054 9.22509 7.30054 9.22509L7.28979 9.33714L13.1953 13.83C14.1795 14.2569 14.5399 13.3658 14.5399 13.3658L17.1054 0.543549C17.1054 -0.310198 15.9221 0.207386 15.9275 0.207386Z" fill="white"/>
<path d="M9.54862 11.0553L7.20901 13.1737C7.20901 13.1737 7.02615 13.3124 6.82715 13.227L7.27356 9.29446" fill="white"/>
</g>
<defs>
<clipPath id="clip0_7_163">
<rect width="16.2105" height="13.8947" fill="white" transform="translate(0.894775 0.0526428)"/>
</clipPath>
</defs>
</svg>
