<svg width="18" height="20" viewBox="0 0 18 20" fill="none" xmlns="http://www.w3.org/2000/svg">
<g clip-path="url(#clip0_7_166)">
<path d="M15.7437 11.115C15.3222 14.8717 12.7772 15.1119 12.307 15.2834C12.1125 15.3521 10.2483 15.8495 7.9302 15.6951L5.40136 18.6628V15.2491H5.38515C1.99715 14.2199 2.11062 10.3945 2.14305 8.38753C2.17547 6.38051 2.5321 4.73373 3.56957 3.61872C5.43378 1.8004 9.25947 2.07486 9.25947 2.07486C12.5016 2.09201 14.0416 3.13841 14.3982 3.49864C15.5816 4.5965 16.1976 7.23821 15.7437 11.115ZM15.2736 2.53802C14.8521 2.12632 13.1338 0.771157 9.3081 0.754003C9.3081 0.754003 4.80157 0.462385 2.59694 2.64094C1.38115 3.9618 0.943466 5.9002 0.911045 8.30176C0.862414 10.7033 0.813782 15.2148 4.81778 16.4328V18.3025C4.81778 18.3025 4.78536 19.0573 5.25547 19.2117C5.80662 19.4004 6.13083 18.8172 6.66578 18.1996C6.95757 17.8565 7.36283 17.3591 7.65462 16.9817C10.3942 17.239 12.5016 16.6558 12.7447 16.57C13.2959 16.3813 16.4245 15.9353 16.9433 11.4409C17.462 6.80936 16.6839 3.85888 15.2736 2.53802Z" fill="white"/>
<path d="M12.8257 11.6811C12.8257 11.6811 12.307 11.2179 12.0638 11.0121C11.8207 10.8234 11.4478 10.5661 11.2371 10.446C10.8642 10.223 10.4752 10.3602 10.3131 10.5832L9.98887 11.0292C9.82677 11.2522 9.55119 11.2179 9.48635 11.2008C9.00003 11.0636 8.4813 10.7548 7.94635 10.2059C7.4114 9.65693 7.08719 9.07369 6.97372 8.49045L6.95751 8.45615C6.92509 8.21599 6.95751 8.09591 7.05477 7.92437L7.07098 7.90722C7.29793 7.68422 7.70319 7.42691 7.76803 7.1696C7.93014 6.72359 7.21688 5.79728 7.11961 5.64289C7.11961 5.64289 6.60087 4.92242 6.42256 4.78519C6.22803 4.61365 5.92003 4.51073 5.61203 4.71657H5.59582C4.70424 5.35127 4.39624 5.71151 4.4773 6.26043L4.52593 6.48344C4.97982 7.97583 5.83898 9.58831 7.13582 11.0121C8.41645 12.4016 9.81056 13.2421 11.1722 13.8253C11.5289 13.9454 11.9017 13.8425 12.2746 13.4994C12.5663 13.2078 12.7933 12.899 12.9554 12.5731C13.1337 12.23 13.0689 11.9041 12.8257 11.6811Z" fill="white"/>
<path d="M10.7022 8.38753C10.6535 8.38753 10.6049 8.33607 10.6049 8.28461C10.5887 7.89006 10.4914 7.59845 10.3131 7.3926C10.1348 7.18675 9.87543 7.08383 9.53501 7.06667C9.48638 7.06667 9.43774 7.01521 9.43774 6.94659C9.43774 6.87798 9.48638 6.84367 9.55122 6.84367C9.95648 6.86082 10.2645 6.99806 10.4752 7.23821C10.686 7.47837 10.7994 7.82145 10.8319 8.26745C10.8156 8.33607 10.767 8.38753 10.7022 8.38753Z" fill="white"/>
<path d="M11.7072 8.76492C11.6424 8.76492 11.6099 8.71346 11.6099 8.64484C11.6262 7.90722 11.4154 7.27252 10.9939 6.77506C10.7832 6.51775 10.5238 6.32905 10.2321 6.19182C9.94026 6.05459 9.59984 5.96882 9.21079 5.93451C9.16216 5.93451 9.11353 5.88305 9.11353 5.81443C9.11353 5.74582 9.16216 5.71151 9.227 5.71151C10.0375 5.78012 10.6859 6.0889 11.1398 6.62067C11.5937 7.1696 11.8207 7.8386 11.8045 8.64484C11.8207 8.71346 11.7721 8.76492 11.7072 8.76492Z" fill="white"/>
<path d="M12.7447 9.19377C12.696 9.19377 12.6474 9.14231 12.6474 9.09085C12.6474 8.43899 12.5501 7.8386 12.3718 7.32398C12.1935 6.80936 11.9179 6.36336 11.5613 5.98597C11.2047 5.60858 10.7994 5.31697 10.3617 5.12827C9.92404 4.93958 9.42152 4.83665 8.88657 4.83665C8.83794 4.83665 8.78931 4.78519 8.78931 4.73373C8.78931 4.66511 8.83794 4.63081 8.88657 4.63081C10.0051 4.64796 10.9453 5.0425 11.7072 5.84874C12.08 6.24328 12.3718 6.72359 12.5664 7.27252C12.7609 7.82145 12.8581 8.43899 12.8581 9.12515C12.8581 9.14231 12.8095 9.19377 12.7447 9.19377Z" fill="white"/>
</g>
<defs>
<clipPath id="clip0_7_166">
<rect width="16.2105" height="18.5263" fill="white" transform="translate(0.894775 0.736847)"/>
</clipPath>
</defs>
</svg>
