<svg width="16" height="10" viewBox="0 0 16 10" fill="none" xmlns="http://www.w3.org/2000/svg">
<g clip-path="url(#clip0_75_298)">
<path d="M0.152887 1.78769C0.0183394 1.44365 -0.153583 1.08497 0.253798 0.890985C1.07977 0.880004 1.90575 0.869024 2.73546 0.858044C3.09426 0.869024 3.2587 1.12889 3.44931 1.49123C4.00619 2.54166 4.5855 3.58842 5.2844 4.55101C5.51238 4.86577 5.89734 4.98655 6.20007 4.48513C6.23371 3.80802 6.26735 3.13092 6.30098 2.45381C6.18886 1.66691 5.90855 1.20209 5.41895 1.15451C5.13864 0.887324 5.34046 0.667723 5.96835 0.550602C6.96625 0.341981 7.83707 0.437142 8.60325 0.532302C9.24983 0.572562 9.34326 1.00079 9.33205 1.49123C9.30963 2.38793 9.29094 3.2883 9.29094 4.18501C9.48155 5.09635 9.98984 4.73035 10.3262 4.33507C10.9279 3.49692 11.4512 2.68074 11.8885 1.76207C12.3407 0.817784 12.464 0.887325 12.7817 0.883665C13.5404 0.880004 14.3776 0.843404 14.9831 0.865364C16.2463 0.792164 16.1006 1.34117 15.7455 1.92311C15.1326 2.93694 14.344 3.85194 13.6413 4.81819C13.2153 5.38549 13.2227 5.74052 13.675 6.04796C14.344 6.76898 15.069 7.44243 15.6782 8.21103C16.3398 9.04918 15.8539 9.27976 15.2372 9.34198C14.5009 9.34198 13.7647 9.34198 13.0284 9.34198C12.4005 9.35296 11.8324 9.19924 11.4325 8.5441C10.5093 7.34727 9.82166 7.01787 9.54508 7.69131C9.42549 7.98777 9.32458 8.38671 9.32831 8.77468C9.33205 9.31636 8.99942 9.36028 8.54719 9.37492C8.06132 9.37492 7.55676 9.49204 7.08585 9.37492C5.41895 8.96134 3.81932 8.20005 2.26081 5.58314C1.55817 4.45219 0.855527 3.2151 0.152887 1.78769Z" fill="white"/>
</g>
<defs>
<clipPath id="clip0_75_298">
<rect width="16" height="9" fill="white" transform="translate(0 0.426758)"/>
</clipPath>
</defs>
</svg>
