<svg width="18" height="19" viewBox="0 0 18 19" fill="none" xmlns="http://www.w3.org/2000/svg">
<g clip-path="url(#clip0_7_173)">
<path d="M14.7386 3.26002C13.2148 1.63551 11.1885 0.736847 9.03246 0.736847C4.59078 0.736847 0.959617 4.59074 0.959617 9.34329C0.959617 10.8641 1.33246 12.3331 2.02951 13.6465L0.894775 18.1053L5.17435 16.9128C6.35772 17.6041 7.68699 17.967 9.03246 17.967C13.4741 17.967 17.1053 14.1131 17.1053 9.36057C17.1053 7.04478 16.2624 4.88453 14.7386 3.26002ZM9.03246 16.498C7.83288 16.498 6.64951 16.1524 5.61204 15.4957L5.36888 15.3401L2.84004 16.066L3.52088 13.4218L3.35878 13.1453C2.69414 12.0047 2.33751 10.6913 2.33751 9.34329C2.3213 5.40299 5.33646 2.18854 9.03246 2.18854C10.8318 2.18854 12.5015 2.93166 13.7821 4.27966C15.0466 5.62766 15.7436 7.42499 15.7436 9.34329C15.7436 13.2836 12.7285 16.498 9.03246 16.498ZM12.7122 11.1406C12.5177 11.0369 11.5127 10.5185 11.3344 10.4493C11.156 10.3802 11.0101 10.3456 10.8805 10.553C10.7508 10.7604 10.3617 11.2443 10.2482 11.3998C10.1348 11.5381 10.0051 11.5554 9.81056 11.4517C9.61604 11.348 8.95141 11.1233 8.18951 10.3802C7.58972 9.8099 7.18446 9.10134 7.07099 8.89396C6.95751 8.68657 7.05478 8.5656 7.15204 8.46191C7.2493 8.35821 7.34656 8.20268 7.46004 8.0817C7.5573 7.96073 7.58972 7.87432 7.65456 7.71878C7.71941 7.58052 7.68699 7.44227 7.63835 7.33858C7.58972 7.23488 7.18446 6.18068 7.02235 5.74863C6.86025 5.33386 6.69814 5.38571 6.56846 5.38571C6.45499 5.38571 6.30909 5.38571 6.17941 5.38571C6.04972 5.38571 5.82278 5.43755 5.64446 5.66222C5.46614 5.8696 4.9312 6.40535 4.9312 7.45955C4.9312 8.51375 5.66067 9.53339 5.75793 9.68893C5.8552 9.82719 7.18446 12.0047 9.21078 12.9379C9.69709 13.1626 10.0699 13.2836 10.3617 13.3873C10.848 13.5428 11.2857 13.5255 11.6261 13.4737C12.0152 13.4046 12.8257 12.9552 12.9878 12.4541C13.1499 11.9529 13.1499 11.5208 13.1013 11.4344C13.0527 11.2962 12.923 11.2443 12.7122 11.1406Z" fill="white"/>
</g>
<defs>
<clipPath id="clip0_7_173">
<rect width="16.2105" height="17.3684" fill="white" transform="translate(0.894775 0.736847)"/>
</clipPath>
</defs>
</svg>
