<svg width="18" height="18" viewBox="0 0 18 18" fill="none" xmlns="http://www.w3.org/2000/svg">
<path d="M16.7917 7.29785C16.7917 6.30618 16.5792 5.24368 16.1542 4.39368C15.8709 4.03952 15.4459 3.75618 14.95 3.68535C12.9667 3.47285 10.9834 3.40202 9.00003 3.47285C7.0167 3.47285 5.03337 3.54368 3.12087 3.68535C2.69587 3.75618 2.3417 3.89785 2.05837 4.18118C1.42087 4.74785 1.35003 5.81035 1.2792 6.58952C1.20837 8.14785 1.20837 9.63535 1.2792 11.1937C1.2792 11.6895 1.35003 12.1145 1.4917 12.6104C1.56253 12.9645 1.77503 13.3187 1.98753 13.602C2.27087 13.8854 2.62503 14.0979 3.05003 14.1687C4.60837 14.3812 6.09587 14.452 7.6542 14.3812C10.1334 14.3812 12.3292 14.3812 14.8792 14.1687C15.3042 14.0979 15.6584 13.8854 15.9417 13.602C16.1542 13.3895 16.2959 13.177 16.3667 12.8937C16.65 12.1145 16.7209 11.3354 16.7209 10.4854C16.7917 10.1312 16.7917 7.72285 16.7917 7.29785ZM7.37087 10.9812V6.58952L11.55 8.78535C10.4167 9.42285 8.85837 10.1312 7.37087 10.9812Z" fill="white"/>
</svg>
