<svg width="26" height="29" viewBox="0 0 26 29" fill="none" xmlns="http://www.w3.org/2000/svg">
<path fill-rule="evenodd" clip-rule="evenodd" d="M2.1665 14.3171C2.1665 8.30115 6.72734 2.87988 13.0215 2.87988C19.1748 2.87988 23.8332 8.19821 23.8332 14.2829C23.8332 21.3396 18.3732 25.7201 12.9998 25.7201C11.2232 25.7201 9.2515 25.2168 7.66984 24.2332C7.11734 23.8787 6.6515 23.6156 6.05567 23.8215L3.86734 24.5077C3.31484 24.6907 2.8165 24.2332 2.979 23.6156L3.70484 21.0537C3.824 20.6991 3.80234 20.3217 3.629 20.0243C2.69734 18.2172 2.1665 16.2386 2.1665 14.3171ZM11.5915 14.3171C11.5915 15.1292 12.209 15.7811 12.9782 15.7926C13.7473 15.7926 14.3648 15.1292 14.3648 14.3285C14.3648 13.5166 13.7473 12.8646 12.9782 12.8646C12.2198 12.8532 11.5915 13.5166 11.5915 14.3171ZM16.5857 14.3285C16.5857 15.1292 17.2032 15.7926 17.9723 15.7926C18.7415 15.7926 19.359 15.1292 19.359 14.3285C19.359 13.5166 18.7415 12.8646 17.9723 12.8646C17.2032 12.8646 16.5857 13.5166 16.5857 14.3285ZM7.984 15.7926C7.22567 15.7926 6.59734 15.1292 6.59734 14.3285C6.59734 13.5166 7.21484 12.8646 7.984 12.8646C8.75317 12.8646 9.37067 13.5166 9.37067 14.3285C9.37067 15.1292 8.75317 15.7811 7.984 15.7926Z" fill="#FB4405"/>
</svg>
