<svg width="889" height="518" viewBox="0 0 889 518" fill="none" xmlns="http://www.w3.org/2000/svg">
<g clip-path="url(#clip0_7_138)">
<path d="M717.153 306.842C690.648 297.709 663.926 288.575 635.9 285.966C607.657 283.139 577.893 286.835 529.229 302.275C480.564 317.715 412.998 345.116 354.123 364.035C295.247 382.955 244.844 393.393 202.263 394.48C159.681 395.568 124.703 387.521 89.7256 379.258C118.62 398.83 147.515 418.401 179.668 431.449C211.822 444.497 247.234 450.804 285.905 451.456C324.576 452.108 366.506 447.107 405.829 443.41C445.152 439.713 482.085 437.538 509.024 438.843C535.964 440.148 623.299 439.06 638.507 432.536C653.497 426.013 650.456 426.665 664.36 421.011C678.264 415.357 737.575 366.862 760.386 370.342C724.974 360.338 700.424 383.39 717.153 306.842Z" fill="black" fill-opacity="0.5" style="mix-blend-mode:soft-light"/>
<path d="M599.619 16.9622C593.97 13.7003 587.018 10.4383 578.111 7.39379C569.203 4.34929 558.123 1.95718 544.871 0.652392C531.618 -0.652394 515.976 -0.652394 499.465 2.60957C482.954 5.87154 465.791 12.6129 447.759 21.529C429.727 30.445 411.26 41.9706 393.663 52.1914C376.282 62.6297 359.988 71.9807 344.998 79.5919C330.225 87.4207 316.972 93.5097 303.503 98.2939C290.033 103.078 276.346 106.558 264.832 109.167C253.317 111.777 244.41 113.734 235.068 113.951C225.943 114.386 216.601 113.081 205.956 110.037C195.528 106.775 183.796 101.556 172.282 96.3367C182.058 106.558 191.835 116.778 204.001 126.782C216.167 136.785 230.506 146.353 244.193 152.225C257.879 158.097 270.915 160.489 284.384 161.359C297.637 162.228 311.107 161.793 323.924 158.966C336.525 156.139 348.474 150.92 361.509 144.396C374.327 137.872 388.449 130.261 400.832 123.302C413.215 116.343 423.861 110.254 437.982 102.208C451.887 94.1621 469.267 84.1587 483.606 75.8951C498.161 67.8489 509.676 61.7599 520.104 55.8883C530.532 50.2343 539.657 45.0151 548.781 40.6658C557.906 36.3165 567.248 32.8371 575.721 30.445C584.194 28.0529 591.58 26.7481 596.577 25.2259C601.574 23.9211 604.181 22.6163 606.788 21.094" fill="black" fill-opacity="0.5" style="mix-blend-mode:soft-light"/>
<path d="M889 24.1385C867.057 17.3971 845.115 10.4383 822.955 7.39379C800.795 4.34929 778.418 5.43661 755.172 7.61125C731.926 9.78589 707.594 13.4828 677.395 23.2687C647.197 33.0546 610.699 48.9295 571.593 68.9362C532.487 88.7254 490.558 112.429 446.673 136.568C402.787 160.706 357.164 185.28 307.196 205.069C257.01 224.858 202.48 239.863 162.505 245.3C122.531 250.736 96.8949 246.605 72.1281 236.601C47.5784 226.815 23.6806 210.94 0 195.065C21.5081 222.901 42.7989 250.736 66.4795 272.483C89.9428 294.447 115.579 310.322 150.556 320.977C185.534 331.633 229.854 337.07 272.218 336.2C314.583 335.33 355.209 327.936 390.838 319.02C426.468 310.104 457.318 299.666 488.82 289.88C520.539 280.094 553.127 270.961 582.238 264.219C611.35 257.478 636.986 252.911 654.149 250.736C671.312 248.779 680.22 249.214 690.648 251.824C701.076 254.651 713.242 259.652 725.408 264.654C742.571 186.802 756.041 125.912 773.421 47.8422C810.789 45.6675 851.85 26.3132 889 24.1385Z" fill="black" fill-opacity="0.5" style="mix-blend-mode:soft-light"/>
<path d="M704.552 348.16C697.383 350.335 663.708 366.427 653.497 370.559C643.287 374.474 630.034 380.345 613.957 387.086C597.881 394.045 578.762 401.874 558.558 410.355C538.353 418.836 517.063 427.97 494.034 435.798C471.005 443.41 446.455 449.716 418.647 453.196C390.838 456.675 359.771 457.545 331.528 453.413C303.285 449.281 277.65 440.148 252.231 431.014C276.563 452.543 300.678 474.29 323.925 488.207C347.171 502.125 369.113 508.432 397.573 512.563C425.816 516.695 460.359 518.87 491.209 518C522.059 517.13 549.216 513.433 568.986 510.389C588.756 507.344 611.785 494.731 627.427 478.639C643.069 462.547 661.753 434.929 677.178 418.184C696.296 373.821 684.347 401.657 704.552 348.16Z" fill="black" fill-opacity="0.5" style="mix-blend-mode:soft-light"/>
</g>
<defs>
<clipPath id="clip0_7_138">
<rect width="889" height="518" fill="white"/>
</clipPath>
</defs>
</svg>
