<svg width="97" height="53" viewBox="0 0 97 53" fill="none" xmlns="http://www.w3.org/2000/svg">
<g clip-path="url(#clip0_7_148)">
<path fill-rule="evenodd" clip-rule="evenodd" d="M91.8175 26.4777C91.8175 25.0315 91.3281 23.8967 90.3272 23.0512C89.3263 22.2057 87.8138 21.8052 85.7675 21.8052H81.8973L79.7397 32.4853H84.4552C85.7452 32.4853 86.8351 32.3518 87.7693 32.0625C88.7035 31.7733 89.4598 31.3728 90.0603 30.8388C90.6609 30.327 91.128 29.6818 91.4171 28.9475C91.6618 28.2133 91.8175 27.39 91.8175 26.4777ZM93.3967 13.0386C93.3967 12.5046 93.33 12.0151 93.152 11.5478C92.9963 11.0806 92.7294 10.6578 92.3735 10.3018C92.0177 9.94583 91.5506 9.63433 90.9723 9.43408C90.3939 9.21157 89.6822 9.10032 88.8592 9.10032H84.5886L82.5423 18.6902H86.368C87.5469 18.6902 88.5701 18.5567 89.4375 18.2674C90.305 18.0004 91.039 17.5999 91.6173 17.1104C92.1956 16.6209 92.6182 16.0201 92.9074 15.3304C93.1965 14.6406 93.33 13.8841 93.33 13.0386H93.3967ZM97 12.3711C97 13.3056 96.8665 14.1734 96.5996 15.0189C96.3327 15.8644 95.9324 16.6431 95.3985 17.3329C94.8647 18.0227 94.1752 18.6234 93.33 19.1352C92.4848 19.6469 91.5061 20.0029 90.3495 20.2254V20.3144C91.1947 20.4479 91.9287 20.7149 92.5737 21.0709C93.1965 21.4269 93.7303 21.8942 94.1529 22.4059C94.5756 22.9177 94.887 23.5185 95.1094 24.1637C95.3096 24.809 95.4208 25.521 95.4208 26.2775C95.4208 27.8128 95.1539 29.1478 94.5978 30.327C94.0417 31.484 93.2855 32.463 92.3068 33.2418C91.3281 34.0206 90.1715 34.6213 88.837 35.0441C87.5024 35.4446 86.0344 35.6448 84.4774 35.6448H75.5359L81.7193 5.96304H89.7934C90.9723 5.96304 91.9954 6.11879 92.8851 6.45255C93.7748 6.7863 94.5311 7.23131 95.1539 7.80981C95.7767 8.38832 96.2437 9.07807 96.5329 9.85683C96.8443 10.6356 97 11.4811 97 12.3711Z" fill="#F4F4F4"/>
<path d="M73.4228 31.3951C70.7092 30.4606 67.9734 29.526 65.1041 29.259C62.2125 28.9698 59.1653 29.348 54.1829 30.9278C49.2006 32.5076 42.2831 35.3111 36.2554 37.2469C30.2277 39.1826 25.0674 40.2506 20.7078 40.3619C16.3483 40.4731 12.7672 39.6499 9.18616 38.8044C12.1444 40.8069 15.1027 42.8094 18.3946 44.1444C21.6865 45.4794 25.312 46.1247 29.2712 46.1915C33.2304 46.2582 37.5232 45.7464 41.5491 45.3682C45.5751 44.9899 49.3563 44.7674 52.1144 44.9009C54.8725 45.0344 63.814 44.9232 65.371 44.2557C66.9057 43.5882 66.5943 43.6549 68.0178 43.0764C69.4414 42.4979 75.5136 37.5361 77.8491 37.8921C74.2235 36.8686 71.7101 39.2271 73.4228 31.3951Z" fill="url(#paint0_linear_7_148)"/>
<path d="M61.3896 1.73551C60.8113 1.40176 60.0996 1.068 59.1876 0.756499C58.2757 0.444996 57.1413 0.200244 55.7845 0.0667427C54.4277 -0.0667586 52.8262 -0.0667585 51.1358 0.266995C49.4453 0.600748 47.6882 1.2905 45.842 2.20276C43.9959 3.11502 42.1053 4.29428 40.3036 5.34004C38.5242 6.40805 36.856 7.36481 35.3213 8.14357C33.8088 8.94458 32.452 9.56758 31.073 10.0571C29.6939 10.5466 28.2926 10.9026 27.1138 11.1696C25.9349 11.4366 25.023 11.6369 24.0665 11.6591C23.1323 11.7036 22.1759 11.5701 21.086 11.2586C20.0184 10.9248 18.8173 10.3908 17.6384 9.85683C18.6393 10.9026 19.6403 11.9484 20.8858 12.9719C22.1314 13.9954 23.5994 14.9744 25.0007 15.5751C26.402 16.1759 27.7366 16.4206 29.1156 16.5096C30.4724 16.5986 31.8515 16.5541 33.1638 16.2649C34.4538 15.9756 35.6772 15.4416 37.0117 14.7741C38.324 14.1066 39.7698 13.3279 41.0376 12.6159C42.3055 11.9039 43.3954 11.2808 44.8411 10.4576C46.2647 9.63433 48.0441 8.61082 49.5121 7.76532C51.0023 6.94206 52.1812 6.31905 53.2488 5.7183C54.3165 5.13979 55.2507 4.60579 56.1849 4.16078C57.119 3.71578 58.0755 3.35977 58.9429 3.11502C59.8104 2.87027 60.5667 2.73677 61.0782 2.58102C61.5898 2.44752 61.8567 2.31401 62.1236 2.15826" fill="url(#paint1_linear_7_148)"/>
<path d="M91.0167 2.46978C88.7702 1.78002 86.5237 1.06802 84.255 0.756515C81.9862 0.445012 79.6953 0.556263 77.3153 0.778765C74.9353 1.00127 72.4442 1.37952 69.3524 2.38078C66.2607 3.38204 62.524 5.00631 58.5203 7.05332C54.5166 9.07809 50.2238 11.5034 45.7308 13.9731C41.2378 16.4429 36.5668 18.9572 31.451 20.982C26.313 23.0067 20.7301 24.542 16.6375 25.0982C12.5448 25.6545 9.9202 25.2317 7.38454 24.2082C4.87113 23.207 2.42444 21.5827 0 19.9584C2.20202 22.8065 4.38179 25.6545 6.80624 27.8795C9.20844 30.1268 11.8331 31.7511 15.4141 32.8413C18.9952 33.9316 23.5327 34.4878 27.87 34.3988C32.2073 34.3098 36.3667 33.5533 40.0144 32.6411C43.6622 31.7288 46.8207 30.6608 50.0459 29.6595C53.2933 28.6583 56.6297 27.7238 59.6102 27.034C62.5907 26.3443 65.2153 25.877 66.9725 25.6545C68.7296 25.4543 69.6416 25.4988 70.7092 25.7658C71.7769 26.055 73.0225 26.5668 74.2681 27.0785C76.0252 19.1129 77.4043 12.8829 79.1837 4.89505C83.0094 4.67255 87.2133 2.69228 91.0167 2.46978Z" fill="url(#paint2_linear_7_148)"/>
<path d="M72.1327 35.6226C71.3987 35.8451 67.9511 37.4916 66.9057 37.9144C65.8603 38.3149 64.5035 38.9156 62.8575 39.6054C61.2116 40.3174 59.2542 41.1184 57.1857 41.9861C55.1171 42.8539 52.9373 43.7884 50.5796 44.5894C48.2219 45.3682 45.7085 46.0134 42.8614 46.3694C40.0144 46.7254 36.8337 46.8144 33.9422 46.3917C31.0506 45.9689 28.426 45.0344 25.8236 44.0999C28.3148 46.3027 30.7837 48.5277 33.1637 49.9517C35.5436 51.3757 37.7901 52.021 40.7039 52.4437C43.5954 52.8665 47.132 53.089 50.2905 53C53.4489 52.911 56.2292 52.5327 58.2533 52.2212C60.2774 51.9097 62.6351 50.6192 64.2366 48.9727C65.8381 47.3262 67.7509 44.5004 69.3301 42.7872C71.2875 38.2481 70.0641 41.0961 72.1327 35.6226Z" fill="url(#paint3_linear_7_148)"/>
</g>
<defs>
<linearGradient id="paint0_linear_7_148" x1="9.17388" y1="37.6915" x2="77.8316" y2="37.6915" gradientUnits="userSpaceOnUse">
<stop offset="0.0464958" stop-color="#FF1000"/>
<stop offset="0.2694" stop-color="#FB4405"/>
<stop offset="0.7763" stop-color="#F1C413"/>
<stop offset="1" stop-color="#ECFF19"/>
</linearGradient>
<linearGradient id="paint1_linear_7_148" x1="17.6699" y1="8.28408" x2="62.1203" y2="8.28408" gradientUnits="userSpaceOnUse">
<stop offset="0.0464958" stop-color="#FF1000"/>
<stop offset="0.2694" stop-color="#FB4405"/>
<stop offset="0.7763" stop-color="#F1C413"/>
<stop offset="1" stop-color="#ECFF19"/>
</linearGradient>
<linearGradient id="paint2_linear_7_148" x1="0" y1="17.4913" x2="91.0236" y2="17.4913" gradientUnits="userSpaceOnUse">
<stop offset="0.0464958" stop-color="#FF1000"/>
<stop offset="0.0520926" stop-color="#FF1300"/>
<stop offset="0.1951" stop-color="#FA5007"/>
<stop offset="0.3368" stop-color="#F6860C"/>
<stop offset="0.4739" stop-color="#F2B111"/>
<stop offset="0.6055" stop-color="#EFD314"/>
<stop offset="0.7301" stop-color="#EEEB17"/>
<stop offset="0.8449" stop-color="#ECFA18"/>
<stop offset="0.9405" stop-color="#ECFF19"/>
</linearGradient>
<linearGradient id="paint3_linear_7_148" x1="25.8001" y1="44.3194" x2="72.1249" y2="44.3194" gradientUnits="userSpaceOnUse">
<stop offset="0.0464958" stop-color="#FF1000"/>
<stop offset="0.1369" stop-color="#FE1601"/>
<stop offset="0.2623" stop-color="#FD2803"/>
<stop offset="0.4081" stop-color="#FB4606"/>
<stop offset="0.5693" stop-color="#F76F0A"/>
<stop offset="0.7433" stop-color="#F3A30F"/>
<stop offset="0.9251" stop-color="#EEE316"/>
<stop offset="1" stop-color="#ECFF19"/>
</linearGradient>
<clipPath id="clip0_7_148">
<rect width="97" height="53" fill="white"/>
</clipPath>
</defs>
</svg>
