<svg width="19" height="19" viewBox="0 0 19 19" fill="none" xmlns="http://www.w3.org/2000/svg">
<path d="M16.863 8.75854L8.40565 0.305081C8.2087 0.10813 7.94996 0 7.67191 0C7.39386 0 7.13126 0.10813 6.93817 0.305081L6.31256 0.926829C5.90707 1.33232 5.90707 1.99268 6.31256 2.39817L13.4144 9.5L6.30484 16.6057C6.10789 16.8026 5.99976 17.0614 5.99976 17.3394C5.99976 17.6175 6.10789 17.8801 6.30484 18.0732L6.92659 18.6949C7.12354 18.8919 7.38228 19 7.66032 19C7.93837 19 8.20098 18.8919 8.39406 18.6949L16.863 10.2337C17.0599 10.0368 17.168 9.77419 17.1642 9.49614C17.1642 9.21809 17.0599 8.95549 16.863 8.75854Z" fill="#333F48"/>
</svg>
