<svg width="19" height="19" viewBox="0 0 19 19" fill="none" xmlns="http://www.w3.org/2000/svg">
<path d="M2.30134 8.75854L10.7587 0.305081C10.9556 0.10813 11.2143 0 11.4924 0C11.7704 0 12.033 0.10813 12.2261 0.305081L12.8517 0.926829C13.2572 1.33232 13.2572 1.99268 12.8517 2.39817L5.74992 9.5L12.8595 16.6057C13.0564 16.8026 13.1646 17.0614 13.1646 17.3394C13.1646 17.6175 13.0564 17.8801 12.8595 18.0732L12.2377 18.6949C12.0408 18.8919 11.782 19 11.504 19C11.2259 19 10.9633 18.8919 10.7702 18.6949L2.30134 10.2337C2.10439 10.0368 1.99626 9.77419 2.00012 9.49614C2.00012 9.21809 2.10439 8.95549 2.30134 8.75854Z" fill="#333F48"/>
</svg>
